<?xml version="1.0" encoding="utf-8"?>
<!-- Generator: Adobe Illustrator 24.0.1, SVG Export Plug-In . SVG Version: 6.00 Build 0)  -->
<svg version="1.1" xmlns="http://www.w3.org/2000/svg" xmlns:xlink="http://www.w3.org/1999/xlink" x="0px" y="0px"
	 viewBox="0 0 792 391.65" style="enable-background:new 0 0 792 391.65;" xml:space="preserve">
<style type="text/css">
	.st0{fill:#573F7D;}
	.st1{fill:#4D3972;}
	.st2{opacity:0.38;fill:#352A4F;}
	.st3{opacity:0.98;fill:#4D3972;}
	.st4{opacity:0.98;fill:#FFFFFF;}
	.st5{fill:#2B2B2B;}
	.st6{fill:#FFFFFF;}
	.st7{fill:#5C5A5C;}
	.st8{fill:#727172;}
	.st9{fill:#3C3754;}
	.st10{fill:#E02626;}
	.st11{fill:#E5D838;}
	.st12{fill:#69BD45;}
	.st13{fill:#39B54A;}
	.st14{font-family:'CourierNewPS-BoldMT';}
	.st15{font-size:11px;}
	.st16{fill:#F7941D;}
	.st17{fill:#00AEEF;}
	.st18{fill:#27AAE1;}
	.st19{fill:#E8549E;}
	.st20{fill:#BE1E2D;}
	.st21{fill:#4C4C4D;}
	.st22{font-family:'HelveticaNeue-Bold';}
	.st23{font-size:36px;}
	.st24{fill:#FCFCFD;}
</style>
<g id="Layer_2">
	<rect x="0.31" y="0.18" class="st0" width="792" height="391.65"/>
	<polygon class="st1" points="792,263.13 730.02,183.42 434.98,353.8 474.25,391.65 792,391.65 	"/>
	<polygon class="st2" points="792.02,391.65 750.13,336 435.01,353.8 474.27,391.65 792.02,391.65 	"/>
</g>
<g id="Layer_1">
	<g>
		<g>
			<path class="st3" d="M308.77,72.86c2.56,0,4.93,0.26,7.12,0.79c2.18,0.52,4.06,1.4,5.63,2.62c1.57,1.22,2.79,2.85,3.67,4.89
				c0.87,2.04,1.31,4.54,1.31,7.51c0,3.38-0.79,6.27-2.36,8.69c-1.57,2.42-3.93,4.06-7.07,4.93v0.17c3.49,0.47,6.26,1.95,8.3,4.45
				c2.04,2.5,3.06,5.85,3.06,10.04c0,2.45-0.32,4.77-0.96,6.99c-0.64,2.21-1.73,4.15-3.28,5.81c-1.54,1.66-3.55,2.98-6.03,3.97
				c-2.48,0.99-5.55,1.48-9.21,1.48h-21.22V72.86H308.77z M303.88,98.45c3.49,0,6.04-0.62,7.64-1.88c1.6-1.25,2.4-3.36,2.4-6.33
				s-0.73-5.07-2.18-6.29c-1.46-1.22-3.76-1.83-6.9-1.83h-4.54v16.33H303.88z M305.19,125.96c3.03,0,5.47-0.67,7.34-2.01
				c1.86-1.34,2.79-3.81,2.79-7.42c0-1.8-0.25-3.3-0.74-4.5c-0.5-1.19-1.17-2.15-2.01-2.88c-0.84-0.73-1.85-1.24-3.01-1.53
				c-1.17-0.29-2.45-0.44-3.84-0.44h-5.41v18.78H305.19z"/>
			<path class="st3" d="M335.32,101.07c0.64-3.09,1.69-5.66,3.14-7.73c1.46-2.07,3.36-3.64,5.72-4.72c2.36-1.08,5.25-1.62,8.69-1.62
				c3.61-0.06,6.61,0.42,9,1.44c2.39,1.02,4.28,2.58,5.68,4.67s2.39,4.69,2.97,7.77c0.58,3.09,0.87,6.7,0.87,10.83
				c0,4.02-0.32,7.57-0.96,10.65c-0.64,3.09-1.69,5.66-3.14,7.73c-1.46,2.07-3.36,3.6-5.72,4.58c-2.36,0.99-5.26,1.48-8.69,1.48
				c-3.61,0.06-6.61-0.39-9-1.35c-2.39-0.96-4.28-2.47-5.68-4.54c-1.4-2.07-2.39-4.66-2.97-7.77c-0.58-3.11-0.87-6.71-0.87-10.79
				C334.36,107.7,334.68,104.15,335.32,101.07z M346.59,118.36c0.12,2.04,0.39,3.79,0.83,5.24c0.44,1.46,1.09,2.59,1.97,3.41
				c0.87,0.82,2.04,1.22,3.49,1.22c2.45,0,4.13-1.28,5.07-3.84c0.93-2.56,1.4-6.78,1.4-12.66c0-5.88-0.47-10.1-1.4-12.66
				c-0.93-2.56-2.62-3.84-5.07-3.84c-1.46,0-2.62,0.41-3.49,1.22c-0.87,0.82-1.53,1.95-1.97,3.41c-0.44,1.46-0.71,3.2-0.83,5.24
				c-0.12,2.04-0.17,4.25-0.17,6.64C346.41,114.11,346.47,116.32,346.59,118.36z"/>
			<path class="st3" d="M377.24,101.07c0.64-3.09,1.69-5.66,3.14-7.73c1.46-2.07,3.36-3.64,5.72-4.72c2.36-1.08,5.25-1.62,8.69-1.62
				c3.61-0.06,6.61,0.42,9,1.44c2.39,1.02,4.28,2.58,5.68,4.67c1.4,2.1,2.39,4.69,2.97,7.77c0.58,3.09,0.87,6.7,0.87,10.83
				c0,4.02-0.32,7.57-0.96,10.65c-0.64,3.09-1.69,5.66-3.14,7.73c-1.46,2.07-3.36,3.6-5.72,4.58c-2.36,0.99-5.26,1.48-8.69,1.48
				c-3.61,0.06-6.61-0.39-9-1.35c-2.39-0.96-4.28-2.47-5.68-4.54c-1.4-2.07-2.39-4.66-2.97-7.77c-0.58-3.11-0.87-6.71-0.87-10.79
				C376.28,107.7,376.6,104.15,377.24,101.07z M388.51,118.36c0.12,2.04,0.39,3.79,0.83,5.24c0.44,1.46,1.09,2.59,1.96,3.41
				c0.87,0.82,2.04,1.22,3.49,1.22c2.45,0,4.13-1.28,5.07-3.84c0.93-2.56,1.4-6.78,1.4-12.66c0-5.88-0.47-10.1-1.4-12.66
				c-0.93-2.56-2.62-3.84-5.07-3.84c-1.46,0-2.62,0.41-3.49,1.22c-0.87,0.82-1.53,1.95-1.96,3.41c-0.44,1.46-0.71,3.2-0.83,5.24
				c-0.12,2.04-0.17,4.25-0.17,6.64C388.33,114.11,388.39,116.32,388.51,118.36z"/>
			<path class="st3" d="M434.44,74.78v13.45h6.99v8.21h-6.99v25.41c0,1.86,0.28,3.19,0.83,3.97c0.55,0.79,1.7,1.18,3.45,1.18
				c0.46,0,0.93-0.01,1.4-0.04c0.46-0.03,0.9-0.07,1.31-0.13v8.38c-1.34,0-2.63,0.04-3.89,0.13c-1.25,0.09-2.58,0.13-3.97,0.13
				c-2.33,0-4.24-0.16-5.72-0.48c-1.49-0.32-2.62-0.96-3.41-1.92c-0.79-0.96-1.33-2.23-1.62-3.8c-0.29-1.57-0.44-3.55-0.44-5.94
				v-26.9h-6.11v-8.21h6.11V74.78H434.44z"/>
			<path class="st3" d="M454.44,121.41c0,2.04,0.54,3.68,1.62,4.93c1.08,1.25,2.63,1.88,4.67,1.88c1.86,0,3.35-0.47,4.45-1.4
				c1.11-0.93,1.66-2.33,1.66-4.19c0-1.51-0.44-2.66-1.31-3.45c-0.87-0.79-1.89-1.41-3.06-1.88l-8.47-3.06
				c-3.32-1.16-5.82-2.81-7.51-4.93c-1.69-2.12-2.53-4.85-2.53-8.17c0-1.92,0.32-3.74,0.96-5.46c0.64-1.72,1.66-3.22,3.06-4.5
				c1.4-1.28,3.19-2.3,5.37-3.06c2.18-0.76,4.82-1.14,7.9-1.14c5.47,0,9.52,1.17,12.14,3.49c2.62,2.33,3.93,5.62,3.93,9.87v1.92
				h-10.83c0-2.45-0.39-4.24-1.18-5.37c-0.79-1.14-2.17-1.7-4.15-1.7c-1.51,0-2.84,0.42-3.97,1.27c-1.13,0.84-1.7,2.11-1.7,3.8
				c0,1.17,0.36,2.21,1.09,3.14c0.73,0.93,2.11,1.72,4.15,2.36l7.25,2.45c3.78,1.28,6.46,2.96,8.03,5.02
				c1.57,2.07,2.36,4.88,2.36,8.43c0,2.5-0.44,4.67-1.31,6.51c-0.87,1.83-2.08,3.36-3.62,4.58c-1.54,1.22-3.38,2.1-5.5,2.62
				c-2.13,0.52-4.47,0.79-7.03,0.79c-3.38,0-6.19-0.32-8.43-0.96c-2.24-0.64-4.02-1.6-5.33-2.88c-1.31-1.28-2.23-2.84-2.75-4.67
				c-0.52-1.83-0.79-3.89-0.79-6.16v-1.66h10.83V121.41z"/>
			<path class="st3" d="M499.07,74.78v13.45h6.99v8.21h-6.99v25.41c0,1.86,0.28,3.19,0.83,3.97c0.55,0.79,1.7,1.18,3.45,1.18
				c0.46,0,0.93-0.01,1.4-0.04c0.46-0.03,0.9-0.07,1.31-0.13v8.38c-1.34,0-2.63,0.04-3.89,0.13c-1.25,0.09-2.58,0.13-3.97,0.13
				c-2.33,0-4.24-0.16-5.72-0.48s-2.62-0.96-3.41-1.92c-0.79-0.96-1.33-2.23-1.62-3.8c-0.29-1.57-0.44-3.55-0.44-5.94v-26.9h-6.11
				v-8.21h6.11V74.78H499.07z"/>
			<path class="st3" d="M521.77,88.23v6.29h0.17c1.22-2.27,2.71-4.09,4.45-5.46c1.75-1.37,3.87-2.05,6.38-2.05
				c0.35,0,0.71,0.02,1.09,0.04c0.38,0.03,0.74,0.07,1.09,0.13v11.53c-0.64-0.06-1.27-0.1-1.88-0.13c-0.61-0.03-1.24-0.04-1.88-0.04
				c-1.05,0-2.1,0.15-3.14,0.44c-1.05,0.29-2.01,0.77-2.88,1.44c-0.87,0.67-1.57,1.54-2.1,2.62c-0.52,1.08-0.79,2.4-0.79,3.97v28.21
				h-12.05V88.23H521.77z"/>
			<path class="st3" d="M539.24,101.5c0-2.74,0.44-5.02,1.31-6.86c0.87-1.83,2.05-3.32,3.54-4.45c1.48-1.14,3.23-1.95,5.24-2.45
				c2.01-0.49,4.15-0.74,6.42-0.74c3.61,0,6.52,0.35,8.73,1.05c2.21,0.7,3.93,1.69,5.15,2.97c1.22,1.28,2.05,2.81,2.49,4.59
				c0.44,1.78,0.66,3.71,0.66,5.81v24.72c0,2.21,0.1,3.93,0.31,5.15c0.2,1.22,0.6,2.53,1.18,3.93h-11.53
				c-0.41-0.76-0.71-1.56-0.92-2.4c-0.21-0.84-0.39-1.67-0.57-2.49h-0.17c-1.4,2.45-3.01,4.03-4.85,4.76s-4.21,1.09-7.12,1.09
				c-2.1,0-3.87-0.36-5.33-1.09c-1.46-0.73-2.62-1.73-3.49-3.01c-0.87-1.28-1.51-2.72-1.92-4.32c-0.41-1.6-0.61-3.19-0.61-4.76
				c0-2.21,0.23-4.12,0.7-5.72c0.47-1.6,1.18-2.97,2.14-4.1c0.96-1.14,2.18-2.08,3.67-2.84c1.48-0.76,3.27-1.43,5.37-2.01l6.81-1.83
				c1.8-0.47,3.06-1.1,3.75-1.92c0.7-0.81,1.05-2.01,1.05-3.58c0-1.8-0.42-3.22-1.27-4.24c-0.84-1.02-2.29-1.53-4.32-1.53
				c-1.86,0-3.26,0.55-4.19,1.66c-0.93,1.11-1.4,2.59-1.4,4.45v1.31h-10.83V101.5z M558.63,113.25c-0.93,0.38-1.78,0.65-2.53,0.83
				c-2.45,0.52-4.19,1.4-5.24,2.62c-1.05,1.22-1.57,2.88-1.57,4.98c0,1.81,0.35,3.35,1.05,4.63c0.7,1.28,1.86,1.92,3.49,1.92
				c0.81,0,1.66-0.13,2.53-0.39c0.87-0.26,1.67-0.68,2.4-1.27c0.73-0.58,1.32-1.34,1.79-2.27c0.47-0.93,0.7-2.04,0.7-3.32v-9.26
				C560.43,112.36,559.56,112.87,558.63,113.25z"/>
			<path class="st3" d="M592.86,88.23v4.98h0.17c1.34-2.21,2.84-3.8,4.5-4.76c1.66-0.96,3.71-1.44,6.16-1.44
				c4.95,0,8.59,1.94,10.92,5.81c2.33,3.87,3.49,10.17,3.49,18.91s-1.17,14.99-3.49,18.78c-2.33,3.79-5.97,5.68-10.92,5.68
				c-2.27,0-4.21-0.42-5.81-1.27c-1.6-0.84-3.04-2.2-4.32-4.06h-0.17v19.47h-12.05V88.23H592.86z M594.57,123.29
				c0.79,2.59,2.52,3.89,5.2,3.89c2.62,0,4.32-1.29,5.11-3.89c0.79-2.59,1.18-6.45,1.18-11.57c0-5.12-0.39-8.98-1.18-11.57
				c-0.79-2.59-2.49-3.89-5.11-3.89c-2.68,0-4.41,1.3-5.2,3.89c-0.79,2.59-1.18,6.45-1.18,11.57
				C593.39,116.84,593.78,120.7,594.57,123.29z"/>
		</g>
		<g>
			<path class="st4" d="M304.19,68.62c2.56,0,4.93,0.26,7.12,0.79c2.18,0.52,4.06,1.4,5.63,2.62c1.57,1.22,2.79,2.85,3.67,4.89
				c0.87,2.04,1.31,4.54,1.31,7.51c0,3.38-0.79,6.27-2.36,8.69c-1.57,2.42-3.93,4.06-7.07,4.93v0.17c3.49,0.47,6.26,1.95,8.3,4.45
				c2.04,2.5,3.06,5.85,3.06,10.04c0,2.45-0.32,4.77-0.96,6.99c-0.64,2.21-1.73,4.15-3.28,5.81c-1.54,1.66-3.55,2.98-6.03,3.97
				c-2.48,0.99-5.55,1.49-9.21,1.49h-21.22V68.62H304.19z M299.3,94.21c3.49,0,6.04-0.62,7.64-1.88c1.6-1.25,2.4-3.36,2.4-6.33
				s-0.73-5.07-2.18-6.29c-1.46-1.22-3.76-1.83-6.9-1.83h-4.54v16.33H299.3z M300.61,121.72c3.03,0,5.47-0.67,7.34-2.01
				c1.86-1.34,2.79-3.81,2.79-7.42c0-1.8-0.25-3.3-0.74-4.5c-0.5-1.19-1.17-2.15-2.01-2.88c-0.84-0.73-1.85-1.24-3.01-1.53
				c-1.17-0.29-2.45-0.44-3.84-0.44h-5.41v18.78H300.61z"/>
			<path class="st4" d="M330.74,96.83c0.64-3.09,1.69-5.66,3.14-7.73c1.46-2.07,3.36-3.64,5.72-4.72c2.36-1.08,5.25-1.62,8.69-1.62
				c3.61-0.06,6.61,0.42,9,1.44c2.39,1.02,4.28,2.58,5.68,4.67c1.4,2.1,2.39,4.69,2.97,7.77c0.58,3.09,0.87,6.7,0.87,10.83
				c0,4.02-0.32,7.57-0.96,10.65c-0.64,3.09-1.69,5.66-3.14,7.73c-1.46,2.07-3.36,3.6-5.72,4.58c-2.36,0.99-5.26,1.48-8.69,1.48
				c-3.61,0.06-6.61-0.39-9-1.35c-2.39-0.96-4.28-2.47-5.68-4.54c-1.4-2.07-2.39-4.66-2.97-7.77c-0.58-3.11-0.87-6.71-0.87-10.79
				C329.77,103.47,330.09,99.92,330.74,96.83z M342,114.12c0.12,2.04,0.39,3.79,0.83,5.24c0.44,1.46,1.09,2.59,1.97,3.41
				c0.87,0.82,2.04,1.22,3.49,1.22c2.45,0,4.13-1.28,5.07-3.84c0.93-2.56,1.4-6.78,1.4-12.66c0-5.88-0.47-10.1-1.4-12.66
				c-0.93-2.56-2.62-3.84-5.07-3.84c-1.46,0-2.62,0.41-3.49,1.22c-0.87,0.82-1.53,1.95-1.97,3.41c-0.44,1.46-0.71,3.2-0.83,5.24
				c-0.12,2.04-0.17,4.25-0.17,6.64C341.83,109.87,341.88,112.08,342,114.12z"/>
			<path class="st4" d="M372.66,96.83c0.64-3.09,1.69-5.66,3.14-7.73c1.46-2.07,3.36-3.64,5.72-4.72c2.36-1.08,5.25-1.62,8.69-1.62
				c3.61-0.06,6.61,0.42,9,1.44c2.39,1.02,4.28,2.58,5.68,4.67c1.4,2.1,2.39,4.69,2.97,7.77c0.58,3.09,0.87,6.7,0.87,10.83
				c0,4.02-0.32,7.57-0.96,10.65c-0.64,3.09-1.69,5.66-3.14,7.73c-1.46,2.07-3.36,3.6-5.72,4.58c-2.36,0.99-5.26,1.48-8.69,1.48
				c-3.61,0.06-6.61-0.39-9-1.35c-2.39-0.96-4.28-2.47-5.68-4.54c-1.4-2.07-2.39-4.66-2.97-7.77c-0.58-3.11-0.87-6.71-0.87-10.79
				C371.69,103.47,372.01,99.92,372.66,96.83z M383.92,114.12c0.12,2.04,0.39,3.79,0.83,5.24c0.44,1.46,1.09,2.59,1.96,3.41
				c0.87,0.82,2.04,1.22,3.49,1.22c2.45,0,4.13-1.28,5.07-3.84c0.93-2.56,1.4-6.78,1.4-12.66c0-5.88-0.47-10.1-1.4-12.66
				c-0.93-2.56-2.62-3.84-5.07-3.84c-1.46,0-2.62,0.41-3.49,1.22c-0.87,0.82-1.53,1.95-1.96,3.41c-0.44,1.46-0.71,3.2-0.83,5.24
				c-0.12,2.04-0.17,4.25-0.17,6.64C383.75,109.87,383.8,112.08,383.92,114.12z"/>
			<path class="st4" d="M429.86,70.54v13.45h6.99v8.21h-6.99v25.41c0,1.86,0.28,3.19,0.83,3.97c0.55,0.79,1.7,1.18,3.45,1.18
				c0.46,0,0.93-0.01,1.4-0.04c0.46-0.03,0.9-0.07,1.31-0.13v8.38c-1.34,0-2.63,0.04-3.89,0.13c-1.25,0.09-2.58,0.13-3.97,0.13
				c-2.33,0-4.24-0.16-5.72-0.48c-1.49-0.32-2.62-0.96-3.41-1.92c-0.79-0.96-1.33-2.23-1.62-3.8c-0.29-1.57-0.44-3.55-0.44-5.94
				V92.2h-6.11v-8.21h6.11V70.54H429.86z"/>
			<path class="st4" d="M449.86,117.18c0,2.04,0.54,3.68,1.62,4.93c1.08,1.25,2.63,1.88,4.67,1.88c1.86,0,3.35-0.47,4.45-1.4
				c1.11-0.93,1.66-2.33,1.66-4.19c0-1.51-0.44-2.66-1.31-3.45c-0.87-0.79-1.89-1.41-3.06-1.88l-8.47-3.06
				c-3.32-1.16-5.82-2.81-7.51-4.93c-1.69-2.12-2.53-4.85-2.53-8.17c0-1.92,0.32-3.74,0.96-5.46c0.64-1.72,1.66-3.22,3.06-4.5
				c1.4-1.28,3.19-2.3,5.37-3.06c2.18-0.76,4.82-1.14,7.9-1.14c5.47,0,9.52,1.17,12.14,3.49c2.62,2.33,3.93,5.62,3.93,9.87v1.92
				h-10.83c0-2.45-0.39-4.24-1.18-5.37c-0.79-1.14-2.17-1.7-4.15-1.7c-1.51,0-2.84,0.42-3.97,1.27c-1.13,0.84-1.7,2.11-1.7,3.8
				c0,1.17,0.36,2.21,1.09,3.14c0.73,0.93,2.11,1.72,4.15,2.36l7.25,2.45c3.78,1.28,6.46,2.96,8.03,5.02
				c1.57,2.07,2.36,4.88,2.36,8.43c0,2.5-0.44,4.67-1.31,6.51c-0.87,1.83-2.08,3.36-3.62,4.58c-1.54,1.22-3.38,2.1-5.5,2.62
				c-2.13,0.52-4.47,0.79-7.03,0.79c-3.38,0-6.19-0.32-8.43-0.96c-2.24-0.64-4.02-1.6-5.33-2.88c-1.31-1.28-2.23-2.84-2.75-4.67
				c-0.52-1.83-0.79-3.89-0.79-6.16v-1.66h10.83V117.18z"/>
			<path class="st4" d="M494.48,70.54v13.45h6.99v8.21h-6.99v25.41c0,1.86,0.28,3.19,0.83,3.97c0.55,0.79,1.7,1.18,3.45,1.18
				c0.46,0,0.93-0.01,1.4-0.04c0.46-0.03,0.9-0.07,1.31-0.13v8.38c-1.34,0-2.63,0.04-3.89,0.13c-1.25,0.09-2.58,0.13-3.97,0.13
				c-2.33,0-4.24-0.16-5.72-0.48s-2.62-0.96-3.41-1.92c-0.79-0.96-1.33-2.23-1.62-3.8c-0.29-1.57-0.44-3.55-0.44-5.94V92.2h-6.11
				v-8.21h6.11V70.54H494.48z"/>
			<path class="st4" d="M517.19,83.99v6.29h0.17c1.22-2.27,2.71-4.09,4.45-5.46c1.75-1.37,3.87-2.05,6.38-2.05
				c0.35,0,0.71,0.02,1.09,0.04c0.38,0.03,0.74,0.07,1.09,0.13v11.53c-0.64-0.06-1.27-0.1-1.88-0.13c-0.61-0.03-1.24-0.04-1.88-0.04
				c-1.05,0-2.1,0.15-3.14,0.44c-1.05,0.29-2.01,0.77-2.88,1.44c-0.87,0.67-1.57,1.54-2.1,2.62c-0.52,1.08-0.79,2.4-0.79,3.97v28.21
				h-12.05V83.99H517.19z"/>
			<path class="st4" d="M534.65,97.27c0-2.74,0.44-5.02,1.31-6.86c0.87-1.83,2.05-3.32,3.54-4.45c1.48-1.14,3.23-1.95,5.24-2.45
				c2.01-0.49,4.15-0.74,6.42-0.74c3.61,0,6.52,0.35,8.73,1.05c2.21,0.7,3.93,1.69,5.15,2.97c1.22,1.28,2.05,2.81,2.49,4.59
				c0.44,1.78,0.66,3.71,0.66,5.81v24.72c0,2.21,0.1,3.93,0.31,5.15c0.2,1.22,0.6,2.53,1.18,3.93h-11.53
				c-0.41-0.76-0.71-1.56-0.92-2.4c-0.21-0.84-0.39-1.67-0.57-2.49h-0.17c-1.4,2.45-3.01,4.03-4.85,4.76
				c-1.83,0.73-4.21,1.09-7.12,1.09c-2.1,0-3.87-0.36-5.33-1.09c-1.46-0.73-2.62-1.73-3.49-3.01c-0.87-1.28-1.51-2.72-1.92-4.32
				c-0.41-1.6-0.61-3.19-0.61-4.76c0-2.21,0.23-4.12,0.7-5.72c0.47-1.6,1.18-2.97,2.14-4.1c0.96-1.14,2.18-2.08,3.67-2.84
				c1.48-0.76,3.27-1.43,5.37-2.01l6.81-1.83c1.8-0.47,3.06-1.1,3.75-1.92c0.7-0.81,1.05-2.01,1.05-3.58c0-1.8-0.42-3.22-1.27-4.24
				c-0.84-1.02-2.29-1.53-4.32-1.53c-1.86,0-3.26,0.55-4.19,1.66c-0.93,1.11-1.4,2.59-1.4,4.45v1.31h-10.83V97.27z M554.04,109.01
				c-0.93,0.38-1.78,0.65-2.53,0.83c-2.45,0.52-4.19,1.4-5.24,2.62c-1.05,1.22-1.57,2.88-1.57,4.98c0,1.81,0.35,3.35,1.05,4.63
				c0.7,1.28,1.86,1.92,3.49,1.92c0.81,0,1.66-0.13,2.53-0.39c0.87-0.26,1.67-0.68,2.4-1.27c0.73-0.58,1.32-1.34,1.79-2.27
				c0.47-0.93,0.7-2.04,0.7-3.32v-9.26C555.85,108.13,554.97,108.63,554.04,109.01z"/>
			<path class="st4" d="M588.28,83.99v4.98h0.17c1.34-2.21,2.84-3.8,4.5-4.76c1.66-0.96,3.71-1.44,6.16-1.44
				c4.95,0,8.59,1.94,10.92,5.81c2.33,3.87,3.49,10.17,3.49,18.91s-1.17,14.99-3.49,18.78c-2.33,3.79-5.97,5.68-10.92,5.68
				c-2.27,0-4.21-0.42-5.81-1.27c-1.6-0.84-3.04-2.2-4.32-4.06h-0.17v19.48h-12.05V83.99H588.28z M589.98,119.06
				c0.79,2.59,2.52,3.89,5.2,3.89c2.62,0,4.32-1.29,5.11-3.89c0.79-2.59,1.18-6.45,1.18-11.57c0-5.12-0.39-8.98-1.18-11.57
				c-0.79-2.59-2.49-3.89-5.11-3.89c-2.68,0-4.41,1.3-5.2,3.89c-0.79,2.59-1.18,6.45-1.18,11.57
				C588.8,112.61,589.19,116.47,589.98,119.06z"/>
		</g>
	</g>
	<path class="st5" d="M720.02,173.42H457.58c-5.5,0-10,4.5-10,10V326c0,5.5,4.5,10,10,10h262.43c5.5,0,10-4.5,10-10V183.42
		C730.02,177.92,725.52,173.42,720.02,173.42z"/>
	<path class="st5" d="M740.55,332.74H437.05c-5.5,0-10-0.24-10,5.26v6.29c0,5.5,4.5,10,10,10h303.49c5.5,0,10-4.5,10-10v-5.81
		C750.55,332.98,746.05,332.74,740.55,332.74z"/>
	<path class="st6" d="M636.2,341.43h-86.8c-6.84,0-12.44-0.09-12.44,2.07l0,0c0,1.14,5.6,2.07,12.44,2.07h81.5
		c6.84,0,12.44-0.93,12.44-2.07v-0.88C643.33,341.96,640.14,341.43,636.2,341.43z"/>
	<rect x="460.58" y="182.67" class="st7" width="256.36" height="144.45"/>
	<rect x="460.62" y="182.48" class="st8" width="23.26" height="144.45"/>
	<rect x="460.62" y="182.67" class="st9" width="256.36" height="12.48"/>
	<circle class="st10" cx="678.96" cy="188.91" r="4.84"/>
	<circle class="st11" cx="693.6" cy="188.91" r="4.84"/>
	<circle class="st12" cx="708.17" cy="188.91" r="4.84"/>
	<text transform="matrix(1 0 0 1 492.1223 209.5356)"><tspan x="0" y="0" class="st13 st14 st15">&lt;!DOCTYPE html&gt;</tspan><tspan x="0" y="13.2" class="st16 st14 st15">&lt;html&gt;</tspan><tspan x="0" y="26.4" class="st17 st14 st15">&lt;head&gt;</tspan><tspan x="0" y="39.6" class="st14 st15">  </tspan><tspan x="13.2" y="39.6" class="st18 st14 st15">&lt;title&gt; </tspan><tspan x="66.01" y="39.6" class="st19 st14 st15">Bootstrap This!</tspan><tspan x="165.03" y="39.6" class="st18 st14 st15">&lt;/title&gt;</tspan><tspan x="0" y="52.8" class="st14 st15">  </tspan><tspan x="13.2" y="52.8" class="st18 st14 st15">&lt;link</tspan><tspan x="46.21" y="52.8" class="st14 st15"> </tspan><tspan x="52.81" y="52.8" class="st20 st14 st15">rel</tspan><tspan x="72.61" y="52.8" class="st6 st14 st15">=”</tspan><tspan x="85.81" y="52.8" class="st16 st14 st15">stylesheet</tspan><tspan x="151.83" y="52.8" class="st6 st14 st15">”</tspan><tspan x="0" y="66" class="st20 st14 st15">href</tspan><tspan x="26.4" y="66" class="st6 st14 st15">=”</tspan><tspan x="39.61" y="66" class="st16 st14 st15">css/bootstrap.min.css</tspan><tspan x="178.23" y="66" class="st6 st14 st15">”</tspan><tspan x="184.83" y="66" class="st18 st14 st15">&gt;</tspan><tspan x="0" y="79.2" class="st18 st14 st15">&lt;head&gt;</tspan><tspan x="0" y="105.6" class="st17 st14 st15">&lt;body&gt;</tspan></text>
	<text transform="matrix(1 0 0 1 468.1455 209.2719)"><tspan x="0" y="0" class="st21 st14 st15">1</tspan><tspan x="0" y="13.2" class="st21 st14 st15">2</tspan><tspan x="0" y="26.4" class="st21 st14 st15">3</tspan><tspan x="0" y="39.6" class="st21 st14 st15">4</tspan><tspan x="0" y="52.8" class="st21 st14 st15">5</tspan><tspan x="0" y="79.2" class="st21 st14 st15">6</tspan><tspan x="0" y="105.6" class="st21 st14 st15">7</tspan></text>
	<text transform="matrix(1 0 0 1 294.7153 171.6964)" class="st1 st22 st23">This!</text>
	<text transform="matrix(1 0 0 1 292.1938 169.6962)" class="st6 st22 st23">This!</text>
</g>
<g id="Layer_3">
	<g>
		<path class="st24" d="M54.8,248.97c-17.41-8.66-24.01-22.54-23.62-42.02c0.88-43.44,0.21-86.91,0.3-130.37
			c0.06-27.55,13.06-40.6,40.56-40.66c43.47-0.1,86.94,0.57,130.39-0.3c19.47-0.39,33.39,6.21,42.12,23.56
			c2.47,53.1,1.15,106.23,0.7,159.34c-0.14,16.68-14.48,31.11-31.09,31.21C161.05,250.04,107.91,251.44,54.8,248.97z M172.24,139.86
			c9.01-4.52,18.75-25.33,13.27-37.43c-5.69-12.56-16.71-19.91-31.36-19.96c-19.34-0.06-38.68,0-58.02-0.21
			c-4.45-0.05-6.49,1.04-6.47,5.97c0.15,37.46,0.08,74.93,0.08,112.39c0,3.25-0.32,6.86,4.54,6.68c24.1-0.88,48.51,3.11,72.27-2.41
			c21.43-4.97,24.08-24.09,22.22-45.01C187.8,148.99,180.75,143,172.24,139.86z"/>
		<path class="st1" d="M54.8,248.97c53.11,2.47,106.25,1.08,159.37,0.75c16.61-0.1,30.95-14.53,31.09-31.21
			c0.45-53.11,1.76-106.24-0.7-159.34c5.16-3.22,6.3,1.61,7.79,4.34c3.73,6.82,4.97,14.25,4.94,22.09
			c-0.14,44.65,0,89.31-0.1,133.96c-0.06,26.83-15.2,41.96-42.03,42.02c-44.66,0.09-89.32-0.05-133.98,0.09
			c-7.84,0.02-15.28-1.2-22.1-4.94C56.37,255.25,51.48,254.13,54.8,248.97z"/>
		<path class="st24" d="M111.95,150.37c12.02,0,24.04-0.12,36.06,0.03c14.02,0.17,21.38,5.34,23.28,16.01
			c2.07,11.59-2.74,18.66-15.86,23.32c-14.51-0.05-29.02-0.09-43.52-0.14c0,0-0.48-0.56-0.48-0.56
			C111.61,176.14,111.78,163.25,111.95,150.37z"/>
		<path class="st24" d="M153.99,100.19c11.95,1.46,13.96,9.13,13.31,19.71c-0.64,10.52-11.04,14.41-21.84,14.61
			c-11.44,0.21-22.47,0.46-34.5-0.14c-0.02-10.34-0.03-23.66-0.05-34c14.22-1.02,28.51-0.88,42.16-0.45
			C153.08,99.93,153.99,100.19,153.99,100.19z"/>
		<path class="st1" d="M111.95,150.37c-0.17,12.7-0.55,26.07-0.73,38.78c0,0.04,44.25,0.66,44.27,0.97
			c0.04,0.77-0.08-0.43-0.04,0.38c0.02,0.35-39.87,2.68-45.21-0.03C106.7,185.49,107.86,159.19,111.95,150.37z"/>
		<path class="st1" d="M110.92,100.38c0.02,9.59-0.01,23.75,0,34c0,0.13,31.3,0.25,31.3,0.38c0,0.54,0-0.19,0,0.33
			c0,0.13-31.39,1.87-32.35,0.55C108.57,133.83,104.82,110.73,110.92,100.38z"/>
	</g>
</g>
</svg>
