<?xml version="1.0" encoding="utf-8"?>
<!-- Generator: Adobe Illustrator 24.0.1, SVG Export Plug-In . SVG Version: 6.00 Build 0)  -->
<svg version="1.1" xmlns="http://www.w3.org/2000/svg" xmlns:xlink="http://www.w3.org/1999/xlink" x="0px" y="0px"
	 viewBox="0 0 1366 1366" style="enable-background:new 0 0 1366 1366;" xml:space="preserve">
<style type="text/css">
	.st0{fill:#563D7C;}
	.st1{fill:#472F6B;}
	.st2{fill:#F2F2F2;}
</style>
<g id="Layer_1">
	<rect x="-2" class="st0" width="1366" height="1366"/>
</g>
<g id="Layer_2">
	<path class="st1" d="M1154.97,87.64H212.14c-59,0-107.26,48.27-107.26,107.26v942.83c0,59,48.27,107.26,107.26,107.26h942.83
		c72.68,0,107.26-48.27,107.26-107.26V194.91C1262.24,135.91,1213.97,87.64,1154.97,87.64z"/>
	<path class="st2" d="M1123.52,37H139.84C92.08,37,53,76.08,53,123.84v983.68c0,47.76,39.08,86.84,86.84,86.84h983.68
		c47.76,0,86.84-39.08,86.84-86.84V123.84C1210.36,76.08,1171.28,37,1123.52,37z"/>
	<g>
		<path class="st1" d="M575.71,158.57c18.81,0,39.05,0.21,60.74,0.61c21.66,0.42,43.14,1.65,64.42,3.68
			c21.26,2.05,41.1,5.12,59.51,9.2c18.4,4.1,34.14,10.24,47.24,18.4c28.62,17.18,52.95,40.91,73,71.16
			c20.03,30.27,30.06,67.48,30.06,111.65c0,46.62-11.25,86.92-33.74,120.86c-22.51,33.95-54.6,59.11-96.32,75.46v2.45
			c53.99,11.46,95.28,36,123.92,73.62c28.62,37.63,42.94,83.43,42.94,137.42c0,31.9-6.2,62.83-17.18,93.25
			c-12.69,35.16-28.43,84.23-50.92,107.54c-22.51,23.31-50.31,42.14-83.43,56.44c-33.13,14.32-71.38,21.47-114.72,21.47
			l-412.19-1.24V157.34L575.71,158.57z M607.61,535.25c66.26,0,113.9-11.66,142.94-34.97c29.03-23.31,43.56-58.28,43.56-104.91
			c0-31.08-4.91-55.62-14.72-73.62c-9.82-17.98-23.31-31.9-40.49-41.72c-17.18-9.82-37.02-16.14-59.51-19.02
			c-22.51-2.86-46.43-4.29-71.78-4.29H374.49v278.52H607.61z M666.51,936.47c51.53,0,91.81-13.9,120.86-41.72
			c29.03-27.8,43.56-66.26,43.56-115.33c0-28.62-5.33-52.34-15.95-71.16c-10.64-18.81-24.75-33.74-42.33-44.78
			c-17.6-11.04-37.85-18.81-60.74-23.31c-22.91-4.49-46.62-6.75-71.16-6.75H374.49v303.06H666.51z"/>
	</g>
	<g>
		<path class="st0" d="M599.18,172.07c18.81,0,39.05,0.21,60.74,0.61c21.66,0.42,43.14,1.65,64.42,3.68
			c21.26,2.05,41.1,5.12,59.51,9.2c18.4,4.1,34.14,10.24,47.24,18.4c28.62,17.18,52.95,40.91,73,71.16
			c20.03,30.27,30.06,67.48,30.06,111.65c0,46.62-11.25,86.92-33.74,120.86c-22.51,33.95-54.6,59.11-96.32,75.46v2.45
			c53.99,11.46,95.28,36,123.92,73.62c28.62,37.63,42.94,83.43,42.94,137.42c0,31.9-5.73,63-17.18,93.25
			c-11.47,30.27-28.43,57.05-50.92,80.37c-22.51,23.31-50.31,42.14-83.43,56.44c-33.13,14.32-71.38,21.47-114.72,21.47h-423.3
			V172.07H599.18z M631.08,548.75c66.26,0,113.9-11.66,142.94-34.97c29.03-23.31,43.56-58.28,43.56-104.91
			c0-31.08-4.91-55.62-14.72-73.62c-9.82-17.98-23.31-31.9-40.49-41.72c-17.18-9.82-37.02-16.14-59.51-19.02
			c-22.51-2.86-46.43-4.29-71.78-4.29H397.96v278.52H631.08z M689.97,949.97c51.53,0,91.81-13.9,120.86-41.72
			c29.03-27.8,43.56-66.26,43.56-115.33c0-28.62-5.33-52.34-15.95-71.16c-10.64-18.81-24.75-33.74-42.33-44.78
			c-17.6-11.04-37.85-18.81-60.74-23.31c-22.91-4.49-46.62-6.75-71.16-6.75H397.96v303.06H689.97z"/>
	</g>
</g>
</svg>
