<?xml version="1.0" encoding="utf-8"?>
<!-- Generator: Adobe Illustrator 24.0.1, SVG Export Plug-In . SVG Version: 6.00 Build 0)  -->
<svg version="1.1" xmlns="http://www.w3.org/2000/svg" xmlns:xlink="http://www.w3.org/1999/xlink" x="0px" y="0px"
	 viewBox="0 0 1366 1366" style="enable-background:new 0 0 1366 1366;" xml:space="preserve">
<style type="text/css">
	.st0{fill:#808080;}
	.st1{fill:#7B46AA;}
	.st2{font-family:'CourierNewPS-BoldMT';}
	.st3{font-size:110px;}
	.st4{fill:#F2F2F2;}
	.st5{font-size:100px;}
</style>
<g id="Layer_1">
	<g>
		<rect class="st0" width="1366" height="1366"/>
	</g>
</g>
<g id="Layer_2">
	<text transform="matrix(1 0 0 1 131.3267 134.9824)"><tspan x="0" y="0" class="st1 st2 st3">&lt;!DOCTYPE HTML&gt;</tspan><tspan x="0" y="120" class="st4 st2 st5">&lt;html&gt;</tspan></text>
	<path class="st1" d="M933,326H176c-24.75,0-45,20.25-45,45v0c0,24.75,20.25,45,45,45h757c24.75,0,45-20.25,45-45v0
		C978,346.25,957.75,326,933,326z"/>
	<path class="st4" d="M1266,520H509c-24.75,0-45,20.25-45,45v0c0,24.75,20.25,45,45,45h757c24.75,0,45-20.25,45-45v0
		C1311,540.25,1290.75,520,1266,520z"/>
	<path class="st1" d="M1143,699H386c-24.75,0-45,20.25-45,45v0c0,24.75,20.25,45,45,45h757c24.75,0,45-20.25,45-45v0
		C1188,719.25,1167.75,699,1143,699z"/>
	<path class="st4" d="M909,910H176c-24.75,0-45,20.25-45,45v0c0,24.75,20.25,45,45,45h733c24.75,0,45-20.25,45-45v0
		C954,930.25,933.75,910,909,910z"/>
	<path class="st4" d="M909,1188H176c-24.75,0-45,20.25-45,45l0,0c0,24.75,20.25,45,45,45h733c24.75,0,45-20.25,45-45l0,0
		C954,1208.25,933.75,1188,909,1188z"/>
	<path class="st1" d="M1266,1043H756c-24.75,0-45,20.25-45,45l0,0c0,24.75,20.25,45,45,45h510c24.75,0,45-20.25,45-45l0,0
		C1311,1063.25,1290.75,1043,1266,1043z"/>
	<path class="st1" d="M385,520H176c-24.75,0-45,20.25-45,45v0c0,24.75,20.25,45,45,45h209c24.75,0,45-20.25,45-45v0
		C430,540.25,409.75,520,385,520z"/>
	<polygon style="fill:none;" points="1454.78,308.09 1452.67,308.09 1452.67,308.09 1454.78,308.09 	"/>
</g>
</svg>
