<?xml version="1.0" encoding="utf-8"?>
<!-- Generator: Adobe Illustrator 24.0.1, SVG Export Plug-In . SVG Version: 6.00 Build 0)  -->
<svg version="1.1" xmlns="http://www.w3.org/2000/svg" xmlns:xlink="http://www.w3.org/1999/xlink" x="0px" y="0px"
	 viewBox="0 0 1366 1366" style="enable-background:new 0 0 1366 1366;" xml:space="preserve">
<style type="text/css">
	.st0{fill:#39B54A;}
	.st1{fill:#009245;}
	.st2{fill:#F2F2F2;}
</style>
<g id="Layer_1">
	<rect class="st0" width="1366" height="1366"/>
	<rect x="-202.75" y="1182.33" style="fill:none;" width="0" height="2.86"/>
</g>
<g id="Layer_2">
	<g>
		<path class="st1" d="M760.78,905.56H634.89c-27.19,0-48.16,0.91-68.75,0l-0.02,0H440.81c-45.84,0-84.99-16.32-117.44-48.96
			c-32.44-32.64-48.67-71.69-48.67-117.15V565.77h97.33v242.46c0,13.21,4.76,24.68,14.28,34.39c9.53,9.72,20.89,14.57,34.1,14.57
			h48.96V565.77h96.75v242.46c0,13.21,4.76,24.68,14.28,34.39c9.53,9.72,21.08,14.57,34.68,14.57h48.37V565.77h97.33V905.56z"/>
		<path class="st1" d="M1090,631.97c30.13,6.51,42.12,12.14,60.82,35.99c18.7,23.85,28.04,53.64,28.04,89.35
			c0,49.38-16.6,88.15-49.8,116.32c-33.2,28.17-79.16,42.25-137.89,42.25c-24.69,0-49.3,1.28-75.51,0.7
			c-27.83-0.61-52.87-0.68-77.98-0.95v-73.53c23.85-0.27,49.57,2.04,74.06,3.5c24.42,1.46,48.02,0.36,71.51,0.36
			c39.79,0,70.35-8.99,91.69-26.97c21.33-17.98,32-35.08,32-68.88c0-31.16-10.67-42.1-32-60.44
			c-21.34-18.34-50.22-27.51-86.65-27.51h-98.05v-59.69h98.05c33.32,0,59.33-7.31,78.02-21.93c18.7-14.62,28.05-34.99,28.05-61.12
			c0-27.56-8.69-57.51-26.07-72.25c-17.38-14.74-42.13-12.07-74.25-12.07c-21.34,0-42.13,0.02-66.16,0.92
			c-23.26,0.87-43.76,0.36-67.61,1.49v-78.17c28.87-0.78,50.59,0.15,73.54-0.94c23.12-1.1,42.72,0.52,60.22,0.52
			c52.25,0,94.02,13.12,125.31,39.37c31.28,26.25,46.92,61.07,46.92,104.45c0,29.48-8.21,54.06-24.63,73.71
			C1125.23,596.12,1105.06,620.91,1090,631.97z"/>
	</g>
	<g>
		<path class="st2" d="M731.21,882.79H605.32c-27.19,0-48.68-0.19-68.77-0.11v0.11H411.24c-45.84,0-84.99-16.32-117.44-48.96
			c-32.44-32.64-48.67-71.69-48.67-117.15V543h97.33v242.46c0,13.21,4.76,24.68,14.28,34.39c9.53,9.72,20.89,14.57,34.1,14.57h48.96
			V543h96.75v242.46c0,13.21,4.76,24.68,14.28,34.39c9.53,9.72,21.08,14.57,34.68,14.57h48.37V543h97.33V882.79z"/>
		<path class="st2" d="M1052.64,603.21c30.13,6.51,42.12,12.14,60.82,35.99c18.7,23.85,28.04,53.64,28.04,89.35
			c0,49.38-16.6,88.15-49.8,116.32c-33.2,28.17-79.16,42.25-137.89,42.25c-24.69,0-49.3,1.28-75.51,0.7
			c-27.83-0.61-52.87-0.68-77.98-0.95v-73.53c23.85-0.27,49.57,2.04,74.06,3.5c24.42,1.46,48.02,0.36,71.51,0.36
			c39.79,0,70.35-8.99,91.69-26.97c21.33-17.98,32-35.08,32-68.88c0-31.16-10.67-42.1-32-60.44
			c-21.34-18.34-50.22-27.51-86.65-27.51h-98.05v-59.69h98.05c33.32,0,59.33-7.31,78.02-21.93c18.7-14.62,28.05-34.99,28.05-61.12
			c0-27.56-8.69-57.51-26.07-72.25c-17.38-14.74-42.13-12.07-74.25-12.07c-21.34,0-42.13,0.02-66.16,0.92
			c-23.26,0.87-43.76,0.36-67.61,1.49v-78.17c28.87-0.78,50.59,0.15,73.54-0.94c23.12-1.1,42.72,0.52,60.22,0.52
			c52.25,0,94.02,13.12,125.31,39.37c31.28,26.25,46.92,61.07,46.92,104.45c0,29.48-8.21,54.06-24.63,73.71
			C1087.86,567.35,1067.7,592.15,1052.64,603.21z"/>
	</g>
</g>
</svg>
