<?xml version="1.0" encoding="utf-8"?>
<!-- Generator: Adobe Illustrator 24.0.1, SVG Export Plug-In . SVG Version: 6.00 Build 0)  -->
<svg version="1.1" xmlns="http://www.w3.org/2000/svg" xmlns:xlink="http://www.w3.org/1999/xlink" x="0px" y="0px"
	 viewBox="0 0 545.83 321.07" style="enable-background:new 0 0 545.83 321.07;" xml:space="preserve">
<style type="text/css">
	.st0{fill:#FFFFFF;}
</style>
<g id="Layer_2">
</g>
<g id="Layer_3">
</g>
<g id="Layer_4">
	<g>
		<path d="M-287.86,79.89c12.49-24.07,16.71-53.05,16.71-73.32c0-74.17-44.16-123.43-103.61-123.43
			c-53.79,0-86.06,38.5-108.14,100.78c-19.82,51.52-39.82,67.91-75.49,67.91c-38.5,0-79.62-27.77-79.62-78.16
			c0-33.66,0.01-33.98,9.82-57.32c15.11-10.11,34.37-61.86,24.14-65.4c-11.1-3.84-35.86,10.67-53.37,8.54
			c-17.5-2.13-39.28-21.35-40.56-4.7c-1.26,16.4,39.92,55.61,41.18,56.8c-4.03,14.35-7.85,28.69-7.85,61
			c0,90.02,50.94,119.22,109.82,119.22c16.81,0,31.38-1.66,44.21-5.73c13.32-2.34,44.85-7.45,58.77-10.13
			c59.81-11.51,91.55-14.95,109.21-14.24c2.32,0.09,4.4,0.26,6.26,0.48c2.61,0.32,4.8,0.76,6.67,1.3c8.3,2.4,10.12,6.75,13.11,10.91
			c-1.93,3.33-3.62,6.17-4.86,8.46l-1.63,2.56c-9.79,13.8-26.73,35.64-23.22,36.41l0,0l-0.92,1.44c26.7-2.73,44.65-18.21,56.38-38
			C-289.08,84.11-287.94,82.38-287.86,79.89z M-466.57,54.24c8.8-11.67,16.6-26.57,23.87-45.41c20.38-52.66,37.91-94.13,73.58-93.79
			c60.2,0.57,74.32,39.89,74.32,91.98c0,8.6-1.23,16.85-3.19,24.59C-326.04,28.15-404.1,41.24-466.57,54.24z"/>
		<path d="M-344.71-51.01c-15.3,0.42-21.54,19.27-20.75,20.54c1.31,2.12,9.68-4.97,9.68-4.97c5.04-5.65,8.54-6.2,11.73-6.23
			c6.1-0.05,8.58,5.4,8.62,7.1c0.07,2.92-1.32,6.87,2.56,7.46c6.53,1,8.12-4.59,8.03-8.57C-324.98-41.32-329.41-51.44-344.71-51.01z
			"/>
	</g>
	<g>
		<path class="st0" d="M447.58,254.75c12.49-24.07,16.71-53.05,16.71-73.32C464.29,107.26,420.13,58,360.68,58
			c-53.79,0-86.06,38.5-108.14,100.78c-19.82,51.52-39.82,67.91-75.49,67.91c-38.5,0-79.62-27.77-79.62-78.16
			c0-33.66,0.01-33.98,9.82-57.32c15.11-10.11,34.37-61.86,24.14-65.4c-11.1-3.84-35.86,10.67-53.37,8.54
			c-17.5-2.13-39.28-21.35-40.56-4.7c-1.26,16.4,39.92,55.61,41.18,56.8c-4.03,14.35-7.85,28.69-7.85,61
			c0,90.02,50.94,119.22,109.82,119.22c16.81,0,31.38-1.66,44.21-5.73c13.32-2.34,44.85-7.45,58.77-10.13
			c59.81-11.51,91.55-14.95,109.21-14.24c2.32,0.09,4.4,0.26,6.26,0.48c2.61,0.32,4.8,0.76,6.67,1.3c8.3,2.4,10.12,6.75,13.11,10.91
			c-1.93,3.33-3.62,6.17-4.86,8.46l-1.63,2.56c-9.79,13.8-26.73,35.64-23.22,36.41l0,0l-0.92,1.44c26.7-2.73,44.65-18.21,56.38-38
			C446.36,258.98,447.5,257.24,447.58,254.75z M268.87,229.11c8.8-11.67,16.6-26.57,23.87-45.41
			c20.38-52.66,37.91-94.13,73.58-93.79c60.2,0.57,74.32,39.89,74.32,91.98c0,8.6-1.23,16.85-3.19,24.59
			C409.4,203.01,331.34,216.11,268.87,229.11z"/>
		<path class="st0" d="M390.73,123.85c-15.3,0.42-21.54,19.27-20.75,20.54c1.31,2.12,9.68-4.97,9.68-4.97
			c5.04-5.65,8.54-6.2,11.73-6.23c6.1-0.05,8.58,5.4,8.62,7.1c0.07,2.92-1.32,6.87,2.56,7.46c6.53,1,8.12-4.59,8.03-8.57
			C410.46,133.55,406.03,123.43,390.73,123.85z"/>
	</g>
</g>
</svg>
