<?xml version="1.0" encoding="utf-8"?>
<!-- Generator: Adobe Illustrator 24.0.1, SVG Export Plug-In . SVG Version: 6.00 Build 0)  -->
<svg version="1.1" id="Layer_1" xmlns="http://www.w3.org/2000/svg" xmlns:xlink="http://www.w3.org/1999/xlink" x="0px" y="0px"
	 viewBox="0 0 962 357" style="enable-background:new 0 0 962 357;" xml:space="preserve">
<style type="text/css">
	.st0{fill:#6A6A6A;}
</style>
<g id="zyIQbT.tif">
	<g>
		<path class="st0" d="M34.88,171.34c0-37.27-0.03-74.54,0.01-111.81C34.91,39.07,45,29.05,65.66,29.04
			c74.85-0.03,149.7-0.03,224.55,0c20.55,0.01,30.72,10.07,30.74,30.57c0.05,75.16,0.05,150.32,0,225.48
			c-0.01,19.78-10.38,30.01-30.34,30.02c-75.16,0.04-150.32,0.04-225.48,0c-19.98-0.01-30.2-10.19-30.23-30.09
			C34.84,247.12,34.88,209.23,34.88,171.34z M60.98,288.89c42.12,0,83.55,0,125.4,0c0-29.3,0-58.09,0-88.15
			c-11.41,0-22.29,0-32.85,0c0-13.46,0-25.63,0-38.7c11.27,0,21.91,0,33.43,0c0-10.71-0.24-20.5,0.05-30.28
			c0.6-20.46,7.32-37.48,27.74-45.92c17.21-7.12,34.95-2.88,52.41-3.51c0,12.59,0,23.57,0,35.5c-8.14,0-15.78-0.26-23.41,0.07
			c-8.6,0.37-15.3,4.24-16.01,13.42c-0.78,10-0.18,20.11-0.18,30.98c13.02,0,25.24,0,38.37,0c-1.69,13.29-3.26,25.63-4.97,39.1
			c-11.55,0-22.44,0-32.98,0c0,30.02,0,58.8,0,87.24c22.82,0,44.83,0,66.58,0c0-78.28,0-155.78,0-233.28c-78.2,0-155.7,0-233.58,0
			C60.98,133.25,60.98,210.54,60.98,288.89z"/>
	</g>
</g>
<g id="KoyPCO.tif">
	<g>
		<path class="st0" d="M473.98,29c21.16,0,42.32,0,63.49,0c38.57,0,70.41,25.88,78.1,63.69c0.95,4.66,1.39,9.51,1.41,14.27
			c0.1,43.35,0.09,86.7,0.05,130.06c-0.03,37.63-28.11,70.69-65.25,76.77c-4.57,0.75-9.25,1.15-13.89,1.16
			c-42.67,0.09-85.33,0.05-128,0.05c-38.86,0-71.74-27.99-77.88-66.41c-0.62-3.9-0.92-7.9-0.93-11.86
			c-0.06-43.15-0.06-86.29-0.03-129.44c0.02-37.96,27.87-70.85,65.35-77.09c4.44-0.74,8.98-1.12,13.48-1.14
			C431.25,28.93,452.61,29,473.98,29z M352.43,171.99c0,21.09-0.04,42.19,0.04,63.28c0.01,3.68,0.23,7.42,0.9,11.03
			c5.22,27.9,28.58,47.28,56.92,47.29c42.53,0.03,85.06,0.03,127.6-0.04c3.61-0.01,7.28-0.3,10.82-0.99
			c27.88-5.44,46.92-28.58,46.94-56.99c0.03-42.4,0.02-84.79-0.01-127.19c0-2.53-0.13-5.07-0.42-7.58
			c-3.3-28.38-27.57-50.28-56.3-50.39c-43.22-0.16-86.43-0.06-129.65-0.02c-6.9,0.01-13.62,1.27-20.06,3.8
			c-22.5,8.86-36.72,29.68-36.77,53.89C352.39,129.39,352.43,150.69,352.43,171.99z"/>
		<path class="st0" d="M397.76,171.87c0.08-41.98,34.35-76.19,76.3-76.16c42.06,0.03,76.34,34.37,76.26,76.41
			c-0.08,41.98-34.35,76.18-76.3,76.16C431.96,248.25,397.68,213.91,397.76,171.87z M419.25,172.06
			c0.03,30.24,24.5,54.7,54.76,54.74c30.31,0.04,54.87-24.53,54.83-54.87c-0.03-30.24-24.5-54.7-54.76-54.74
			C443.77,117.16,419.21,141.72,419.25,172.06z"/>
		<path class="st0" d="M553.25,107.57c-8.27-0.01-14.81-6.6-14.79-14.89c0.02-8.26,6.62-14.82,14.9-14.8
			c8.24,0.02,14.79,6.62,14.8,14.91C568.16,101.03,561.55,107.59,553.25,107.57z"/>
	</g>
</g>
<g id="vyVpeO.tif">
	<g>
		<path class="st0" d="M632,263.76c0-61.17,0-122.34,0-183.52c6.24-27.92,23.32-45,51.24-51.24c61.17,0,122.34,0,183.52,0
			c27.92,6.24,45.01,23.32,51.24,51.24c0,61.17,0,122.34,0,183.52c-6.24,27.92-23.32,45-51.24,51.24c-61.17,0-122.34,0-183.52,0
			C655.32,308.76,638.24,291.68,632,263.76z M786.92,255.12c0-2.58,0-4.72,0-6.87c0-19.26-0.29-38.53,0.18-57.78
			c0.15-5.98,1.35-12.38,3.87-17.75c4.2-8.98,12.04-13.52,22.26-12.75c9.87,0.74,16.08,6.56,19,15.55
			c1.56,4.81,2.18,10.1,2.26,15.19c0.27,16.68,0.1,33.36,0.1,50.04c0,4.71,0,9.42,0,14.29c12.19,0,23.77,0,35.49,0
			c0-29.33,0.83-58.32-0.29-87.23c-0.76-19.59-9.73-35.52-30.05-41.3c-20.17-5.73-37.6-0.41-51.2,16.04
			c-0.29,0.35-0.87,0.45-1.88,0.94c0-6.57,0-12.66,0-18.73c-12.05,0-23.63,0-35.21,0c0,43.64,0,86.86,0,130.36
			C763.18,255.12,774.62,255.12,786.92,255.12z M691.92,124.63c0,43.63,0,86.96,0,130.39c11.91,0,23.49,0,34.98,0
			c0-43.73,0-87.07,0-130.39C715.02,124.63,703.59,124.63,691.92,124.63z M730.17,88.14c-0.03-11.56-9.37-20.96-20.77-20.93
			c-11.41,0.04-20.68,9.49-20.65,21.04c0.03,11.69,9.15,20.81,20.77,20.78C721.13,109.01,730.2,99.83,730.17,88.14z"/>
	</g>
</g>
</svg>
